<svg width="126" height="16" viewBox="0 0 126 16" fill="none" xmlns="http://www.w3.org/2000/svg">
<path d="M51.3307 0H37.2752C36.9372 0 36.6641 0.270675 36.6641 0.605706V14.5369C36.6641 14.872 36.9372 15.1426 37.2752 15.1426H51.3307C51.6687 15.1426 51.9418 14.872 51.9418 14.5369V0.605706C51.9418 0.270675 51.6687 0 51.3307 0ZM48.4146 5.48353C48.4203 5.57249 48.4203 5.66524 48.4203 5.7561C48.4203 8.53477 46.2852 11.7355 42.3837 11.7355C41.1806 11.7355 40.0653 11.3892 39.1257 10.7929C39.2976 10.8118 39.4618 10.8194 39.6375 10.8194C40.6306 10.8194 41.5434 10.4863 42.271 9.92222C41.3391 9.90329 40.5561 9.29758 40.2887 8.46474C40.6153 8.51206 40.9094 8.51206 41.2455 8.42688C40.7656 8.33025 40.3343 8.07194 40.0248 7.69584C39.7153 7.31973 39.5468 6.84903 39.5477 6.3637V6.3372C39.8285 6.4943 40.1589 6.59084 40.5045 6.60409C40.2139 6.41214 39.9756 6.1521 39.8107 5.84701C39.6458 5.54192 39.5594 5.20122 39.5592 4.85511C39.5592 4.46329 39.6623 4.10555 39.8476 3.79513C40.3802 4.445 41.0448 4.97652 41.7983 5.35513C42.5517 5.73374 43.3771 5.95097 44.2208 5.9927C43.921 4.56361 44.9981 3.4071 46.2929 3.4071C46.904 3.4071 47.454 3.66073 47.8417 4.06959C48.321 3.98062 48.7793 3.8027 49.188 3.5642C49.0295 4.05066 48.6972 4.4614 48.2561 4.72072C48.6839 4.67529 49.0964 4.55794 49.4783 4.39326C49.1899 4.81347 48.829 5.18636 48.4146 5.48353Z" fill="#AAAAAA"/>
<path d="M14.6667 0H0.611111C0.27309 0 0 0.270675 0 0.605706V14.5369C0 14.872 0.27309 15.1426 0.611111 15.1426H14.6667C15.0047 15.1426 15.2778 14.872 15.2778 14.5369V0.605706C15.2778 0.270675 15.0047 0 14.6667 0ZM12.9021 4.41976H11.6818C10.725 4.41976 10.5398 4.87025 10.5398 5.53274V6.99212H12.8238L12.5259 9.27676H10.5398V15.1426H8.15833V9.27866H6.16649V6.99212H8.15833V5.3075C8.15833 3.3522 9.36337 2.28654 11.1241 2.28654C11.9682 2.28654 12.692 2.349 12.904 2.3774V4.41976H12.9021Z" fill="#AAAAAA"/>
<path d="M124.959 4.04507C124.872 3.70154 124.701 3.38826 124.464 3.13658C124.227 2.8849 123.932 2.70366 123.608 2.61098C122.417 2.271 117.639 2.271 117.639 2.271C117.639 2.271 112.861 2.271 111.669 2.60917C111.345 2.70155 111.05 2.88269 110.813 3.13442C110.576 3.38614 110.406 3.69958 110.319 4.04326C110 5.30917 110 7.94949 110 7.94949C110 7.94949 110 10.5898 110.319 11.8539C110.494 12.552 111.013 13.1017 111.669 13.288C112.861 13.628 117.639 13.628 117.639 13.628C117.639 13.628 122.417 13.628 123.608 13.288C124.267 13.1017 124.783 12.552 124.959 11.8539C125.278 10.5898 125.278 7.94949 125.278 7.94949C125.278 7.94949 125.278 5.30917 124.959 4.04507ZM116.121 10.3728V5.52618L120.077 7.9314L116.121 10.3728Z" fill="#AAAAAA"/>
<path d="M80.9729 5.04647C79.5702 5.04647 78.4255 6.18105 78.4255 7.57132C78.4255 8.9616 79.5702 10.0962 80.9729 10.0962C82.3756 10.0962 83.5203 8.9616 83.5203 7.57132C83.5203 6.18105 82.3756 5.04647 80.9729 5.04647ZM88.6131 7.57132C88.6131 6.52577 88.6227 5.4897 88.5635 4.44604C88.5042 3.23381 88.2252 2.15795 87.3309 1.27151C86.4346 0.383174 85.351 0.108528 84.128 0.0498102C83.0731 -0.00890719 82.0278 0.000563392 80.9748 0.000563392C79.9199 0.000563392 78.8746 -0.00890719 77.8217 0.0498102C76.5986 0.108528 75.5131 0.385068 74.6188 1.27151C73.7225 2.15985 73.4454 3.23381 73.3862 4.44604C73.327 5.49159 73.3365 6.52767 73.3365 7.57132C73.3365 8.61498 73.327 9.65295 73.3862 10.6966C73.4454 11.9088 73.7244 12.9847 74.6188 13.8711C75.5151 14.7595 76.5986 15.0341 77.8217 15.0928C78.8765 15.1516 79.9219 15.1421 80.9748 15.1421C82.0297 15.1421 83.075 15.1516 84.128 15.0928C85.351 15.0341 86.4365 14.7576 87.3309 13.8711C88.2271 12.9828 88.5042 11.9088 88.5635 10.6966C88.6246 9.65295 88.6131 8.61687 88.6131 7.57132ZM80.9729 11.4561C78.8039 11.4561 77.0534 9.72114 77.0534 7.57132C77.0534 5.42151 78.8039 3.6865 80.9729 3.6865C83.1419 3.6865 84.8924 5.42151 84.8924 7.57132C84.8924 9.72114 83.1419 11.4561 80.9729 11.4561ZM85.0529 4.43468C84.5465 4.43468 84.1376 4.02934 84.1376 3.5274C84.1376 3.02546 84.5465 2.62012 85.0529 2.62012C85.5593 2.62012 85.9683 3.02546 85.9683 3.5274C85.9685 3.64658 85.9449 3.76463 85.8989 3.87477C85.853 3.98492 85.7856 4.085 85.7005 4.16927C85.6155 4.25355 85.5145 4.32038 85.4034 4.36592C85.2923 4.41146 85.1732 4.43483 85.0529 4.43468Z" fill="#AAAAAA"/>
</svg>
